<svg width="857" height="250" viewBox="0 0 857 250" fill="red" xmlns="http://www.w3.org/2000/svg">
<rect width="857" height="250" fill="none"/>
<rect width="150" height="140" transform="translate(672 83)" fill="none"/>
<path d="M800.033 173.502C791.864 165.878 782.141 160.234 771.533 156.818C782.895 149.514 790.359 137.29 790.359 123.469C790.359 101.154 770.908 83 747 83C723.092 83 703.641 101.154 703.641 123.469C703.641 137.29 711.105 149.514 722.467 156.818C711.859 160.234 702.136 165.878 693.967 173.502C679.801 186.724 672 204.302 672 223H683.719C683.719 190.433 712.107 163.938 747 163.938C781.893 163.938 810.281 190.433 810.281 223H822C822 204.302 814.199 186.724 800.033 173.502ZM747 153C729.553 153 715.359 139.752 715.359 123.469C715.359 107.185 729.553 93.9375 747 93.9375C764.447 93.9375 778.641 107.185 778.641 123.469C778.641 139.752 764.447 153 747 153Z" fill="black" fill-opacity="0.5"/>
<g clip-path="url(#clip0)">
<rect width="140" height="140" transform="translate(22 14)" fill="white"/>
<path d="M157.713 14H145.223C142.855 14 140.936 15.9194 140.936 18.2874C140.936 20.6554 142.855 22.5748 145.223 22.5748H153.425V30.7769C153.425 33.1449 155.345 35.0643 157.713 35.0643C160.081 35.0643 162 33.1449 162 30.7769V18.2874C162 15.9194 160.081 14 157.713 14V14Z" fill="black" fill-opacity="0.5"/>
<path d="M157.713 89.4922C155.345 89.4922 153.425 91.4117 153.425 93.7797V101.982H145.223C142.855 101.982 140.936 103.901 140.936 106.269C140.936 108.637 142.855 110.557 145.223 110.557H157.713C160.081 110.557 162 108.637 162 106.269V93.7797C162 91.4117 160.081 89.4922 157.713 89.4922V89.4922Z" fill="black" fill-opacity="0.5"/>
<path d="M69.7309 35.0643C72.0989 35.0643 74.0183 33.1449 74.0183 30.7769V22.5748H82.2203C84.5884 22.5748 86.5078 20.6554 86.5078 18.2874C86.5078 15.9194 84.5884 14 82.2203 14H69.7309C67.3629 14 65.4435 15.9194 65.4435 18.2874V30.7769C65.4435 33.1449 67.3629 35.0643 69.7309 35.0643Z" fill="black" fill-opacity="0.5"/>
<path d="M89.005 76.8768L24.0924 141.789C21.3025 144.579 21.3025 149.101 24.0924 151.891C26.8824 154.68 31.4037 154.68 34.1936 151.891L99.1062 86.9779L96.3654 79.6176L89.005 76.8768Z" fill="black" fill-opacity="0.5"/>
<path d="M148.766 71.3023L139.278 56.6061C138.624 55.5882 138.427 54.3395 138.741 53.1699L143.236 36.4166C143.835 34.1863 141.793 32.1452 139.563 32.7444L122.812 37.2422C121.643 37.5562 120.394 37.3586 119.377 36.7049L104.68 27.2169C102.735 25.9618 100.16 27.2906 100.059 29.6041L99.2942 46.8884C99.2397 48.121 98.6597 49.2671 97.6995 50.0414L84.0361 61.0366C82.2246 62.4946 82.6903 65.37 84.8693 66.1817L95.6733 70.2085C104.198 73.383 102.603 71.7936 105.774 80.3097L109.801 91.1137C110.613 93.2926 113.488 93.7583 114.946 91.9468L125.942 78.2835C126.716 77.3232 127.862 76.7433 129.095 76.6888L146.379 75.924C148.692 75.8215 150.021 73.2484 148.766 71.3023Z" fill="black" fill-opacity="0.5"/>
</g>
<rect width="140" height="140" transform="translate(226 83)" fill="white"/>
<path d="M345.498 173.502C337.873 165.878 328.799 160.234 318.897 156.818C329.502 149.514 336.469 137.29 336.469 123.469C336.469 101.154 318.314 83 296 83C273.686 83 255.531 101.154 255.531 123.469C255.531 137.29 262.498 149.514 273.103 156.818C263.202 160.234 254.127 165.878 246.503 173.502C233.281 186.724 226 204.302 226 223H236.938C236.938 190.433 263.433 163.938 296 163.938C328.567 163.938 355.062 190.433 355.062 223H366C366 204.302 358.719 186.724 345.498 173.502ZM296 153C279.717 153 266.469 139.752 266.469 123.469C266.469 107.185 279.717 93.9375 296 93.9375C312.283 93.9375 325.531 107.185 325.531 123.469C325.531 139.752 312.283 153 296 153Z" fill="black" fill-opacity="0.5"/>
<g clip-path="url(#clip1)">
<rect width="150" height="140" transform="translate(449 8)" fill="white"/>
<path d="M594.406 8H581.025C578.488 8 576.431 9.9194 576.431 12.2874C576.431 14.6554 578.488 16.5748 581.025 16.5748H589.813V24.7769C589.813 27.1449 591.869 29.0643 594.406 29.0643C596.943 29.0643 599 27.1449 599 24.7769V12.2874C599 9.9194 596.943 8 594.406 8V8Z" fill="black" fill-opacity="0.5"/>
<path d="M594.406 83.4922C591.869 83.4922 589.813 85.4117 589.813 87.7797V95.9817H581.025C578.488 95.9817 576.431 97.9011 576.431 100.269C576.431 102.637 578.488 104.557 581.025 104.557H594.406C596.943 104.557 599 102.637 599 100.269V87.7797C599 85.4117 596.943 83.4922 594.406 83.4922V83.4922Z" fill="black" fill-opacity="0.5"/>
<path d="M500.14 29.0643C502.677 29.0643 504.734 27.1449 504.734 24.7769V16.5748H513.522C516.059 16.5748 518.115 14.6554 518.115 12.2874C518.115 9.9194 516.059 8 513.522 8H500.14C497.603 8 495.547 9.9194 495.547 12.2874V24.7769C495.547 27.1449 497.603 29.0643 500.14 29.0643Z" fill="black" fill-opacity="0.5"/>
<path d="M520.791 70.8768L451.242 135.789C448.253 138.579 448.253 143.101 451.242 145.891C454.231 148.68 459.075 148.68 462.065 145.891L531.614 80.9779L528.677 73.6176L520.791 70.8768Z" fill="black" fill-opacity="0.5"/>
<path d="M584.821 65.3023L574.655 50.6061C573.955 49.5882 573.743 48.3395 574.079 47.1699L578.896 30.4166C579.537 28.1863 577.35 26.1452 574.961 26.7444L557.013 31.2422C555.761 31.5562 554.422 31.3586 553.332 30.7049L537.585 21.2169C535.501 19.9618 532.743 21.2906 532.635 23.6041L531.815 40.8884C531.757 42.121 531.135 43.2671 530.107 44.0414L515.467 55.0366C513.526 56.4946 514.025 59.37 516.36 60.1817L527.936 64.2085C537.069 67.383 535.361 65.7936 538.758 74.3097L543.073 85.1137C543.942 87.2926 547.023 87.7583 548.585 85.9468L560.366 72.2835C561.196 71.3232 562.424 70.7433 563.744 70.6888L582.263 69.924C584.742 69.8215 586.165 67.2484 584.821 65.3023Z" fill="black" fill-opacity="0.5"/>
</g>
<defs>
<clipPath id="clip0">
<rect width="140" height="140" fill="white" transform="translate(22 14)"/>
</clipPath>
<clipPath id="clip1">
<rect width="150" height="140" fill="white" transform="translate(449 8)"/>
</clipPath>
</defs>
</svg>
